<?xml version="1.0" encoding="UTF-8"?><svg id="Laag_1" xmlns="http://www.w3.org/2000/svg" viewBox="0 0 1750 1750"><defs><style>.cls-1{fill:#fff;}.cls-2{fill:#fdc300;}.cls-3{fill:#101010;}</style></defs><g><path class="cls-3" d="M300,1749.5c-79.67,0-154.79-31.25-211.52-87.98S.5,1529.67,.5,1450V300C.5,220.33,31.74,145.21,88.48,88.48S220.33,.5,300,.5H1450c79.67,0,154.79,31.24,211.52,87.98s87.98,131.85,87.98,211.52V1450c0,79.67-31.25,154.79-87.98,211.52s-131.85,87.98-211.52,87.98H300Z"/><path d="M1450,1c40.19,0,79.24,7.94,116.09,23.59,35.57,15.11,67.56,36.73,95.07,64.24,27.51,27.51,49.13,59.5,64.24,95.07,15.65,36.85,23.59,75.91,23.59,116.09V1450c0,40.19-7.94,79.24-23.59,116.09-15.11,35.57-36.73,67.56-64.24,95.07-27.51,27.51-59.5,49.13-95.07,64.24-36.85,15.65-75.91,23.59-116.09,23.59H300c-40.19,0-79.24-7.94-116.09-23.59-35.57-15.11-67.56-36.73-95.07-64.24-27.51-27.51-49.13-59.5-64.24-95.07-15.65-36.85-23.59-75.91-23.59-116.09V300c0-40.19,7.94-79.24,23.59-116.09,15.11-35.57,36.73-67.56,64.24-95.07,27.51-27.51,59.5-49.13,95.07-64.24C220.76,8.94,259.81,1,300,1H1450m0-1H300C135,0,0,135,0,300V1450c0,165,135,300,300,300H1450c165,0,300-135,300-300V300C1750,135,1615,0,1450,0h0Z"/></g><g><path class="cls-1" d="M960.68,691.68v12.96h120.53v186.62h-120.53v461.38h-194.4v-461.38h-168.48v461.38h-194.4v-461.38h-86.83v-186.62h86.83c0-181.44,99.79-290.31,314.93-277.35v186.62c-72.58-6.48-120.53,15.55-120.53,90.72h168.48v-12.96c0-181.44,99.79-290.3,314.93-277.34v186.62c-72.58-6.48-120.53,15.55-120.53,90.72Z"/><path class="cls-2" d="M1154.8,1247.67c0-67.39,55.73-123.12,123.12-123.12s123.12,55.73,123.12,123.12-55.73,123.12-123.12,123.12-123.12-55.73-123.12-123.12Zm6.48-543.03V445.44h233.28v259.2l-38.88,324h-155.52l-38.88-324Z"/></g></svg>