<?xml version="1.0" encoding="UTF-8"?>
<svg xmlns="http://www.w3.org/2000/svg" viewBox="1 -1 50 50">
    <path d="M 11.09375 2 C 6.39375 2.8 2.8 6.39375 2 11.09375 L 6 11.6875 C 6.4 8.6875 8.6875 6.4 11.6875 6 L 11.09375 2 z M 17 2 L 17 6 L 23 6 L 23 2 L 17 2 z M 28 2 L 28 6 L 34 6 L 34 2 L 28 2 z M 38.90625 2 L 38.3125 6 C 41.2125 6.4 43.5 8.6875 44 11.6875 L 48 11.09375 C 47.2 6.39375 43.60625 2.7 38.90625 2 z M 2 16 L 2 22 L 6 22 L 6 16 L 2 16 z M 44 17 L 44 23 L 48 23 L 48 17 L 44 17 z M 2 27 L 2 33 L 6 33 L 6 27 L 2 27 z M 44 28 L 44 34 L 48 34 L 48 28 L 44 28 z M 6 38.3125 L 2 38.90625 C 2.8 43.60625 6.39375 47.3 11.09375 48 L 11.6875 44 C 8.7875 43.6 6.5 41.3125 6 38.3125 z M 44 38.3125 C 43.6 41.2125 41.3125 43.5 38.3125 44 L 38.90625 48 C 43.60625 47.2 47.2 43.60625 48 38.90625 L 44 38.3125 z M 16 44 L 16 48 L 22 48 L 22 44 L 16 44 z M 27 44 L 27 48 L 33 48 L 33 44 L 27 44 z" transform="translate(1 -1)"/>
</svg>